<?xml version="1.0" standalone="no"?>
<!DOCTYPE svg PUBLIC "-//W3C//DTD SVG 1.1//EN" "http://www.w3.org/Graphics/SVG/1.1/DTD/svg11.dtd" >
<svg xmlns="http://www.w3.org/2000/svg" width="100%" height="100%">
<metadata>
Created by FontXChange 20110222 at Wed Jun  3 13:08:13 2015
 By James Beall
Copyright \(c\) 2013 by Mark Caneso. All rights reserved.
</metadata>
<defs>
<font id="CampaignMedium" horiz-adv-x="690" >
  <font-face 
    font-family="CampaignMedium"
    font-weight="460"
    font-stretch="normal"
    units-per-em="1000"
    panose-1="2 0 0 0 0 0 0 0 0 0"
    ascent="750"
    descent="-250"
    x-height="510"
    cap-height="700"
    bbox="-185 -230 1479 918"
    underline-thickness="50"
    underline-position="-50"
    stemh="115"
    stemv="159"
    unicode-range="U+000D-FB02"
  />
<missing-glyph horiz-adv-x="250" 
 />
    <glyph glyph-name="fi" unicode="fi" horiz-adv-x="665" 
d="M552 586l-107 -30c0 1 1 8 1 15c0 41 -33 67 -92 67c-61 0 -96 -23 -96 -77v-51h339v-510h-152v412h-187v-412h-152v412h-91v98h92v50c0 86 68 168 230 168c130 0 216 -38 216 -124c0 -9 -1 -18 -1 -18z" />
    <glyph glyph-name="fl" unicode="fl" horiz-adv-x="677" 
d="M106 0v412h-91v98h92v50c0 86 60 168 251 168c181 0 251 -68 251 -163v-565h-152v562c0 58 -38 76 -97 76c-61 0 -102 -23 -102 -78v-50h123v-98h-123v-412h-152z" />
    <glyph glyph-name=".notdef" horiz-adv-x="250" 
 />
    <glyph glyph-name="NUL" horiz-adv-x="260" 
 />
    <glyph glyph-name="NUL" horiz-adv-x="260" 
 />
    <glyph glyph-name="CR" unicode="&#xd;" horiz-adv-x="260" 
 />
    <glyph glyph-name="space" unicode=" " horiz-adv-x="260" 
 />
    <glyph glyph-name="backslash" unicode="\" horiz-adv-x="496" 
d="M489 -107h-150l-327 807h151z" />
    <glyph glyph-name="bracketright" unicode="]" horiz-adv-x="421" 
d="M330 766v-833h-280v109h130v615h-130v109h280z" />
    <glyph glyph-name="asciicircum" unicode="^" horiz-adv-x="592" 
d="M33 316l206 374h114l206 -374h-143l-119 238h-2l-119 -238h-143z" />
    <glyph glyph-name="underscore" unicode="_" horiz-adv-x="562" 
d="M533 -125h-504v108h504v-108z" />
    <glyph glyph-name="grave" unicode="`" 
d="M323 561l-152 160h166l109 -160h-123z" />
    <glyph glyph-name="a" unicode="a" horiz-adv-x="626" 
d="M201 -11c-85 0 -163 43 -163 137c0 120 120 131 227 146c66 9 126 18 126 76c0 47 -31 81 -92 81c-50 0 -94 -26 -94 -86c0 -7 1 -16 3 -23l-136 -7c-2 10 -3 21 -3 32c0 114 100 177 237 177c129 0 233 -55 233 -198v-184c0 -34 19 -51 44 -51c15 0 31 5 46 14l-1 -92
c-35 -16 -71 -21 -105 -21c-66 0 -108 43 -115 105c-44 -81 -134 -106 -207 -106zM387 183v63c-23 -22 -58 -29 -89 -34c-51 -8 -104 -15 -104 -67c0 -41 33 -61 74 -61c52 0 119 30 119 99z" />
    <glyph glyph-name="b" unicode="b" horiz-adv-x="682" 
d="M174 0h-119l11 113c1 10 2 22 2 34v553h152v-267c51 65 120 89 190 89c120 0 229 -70 229 -259c0 -191 -106 -275 -240 -275c-80 0 -167 28 -213 106zM219 286v-68c0 -85 69 -126 134 -126c68 0 132 35 132 167c0 122 -65 158 -133 158c-60 0 -133 -41 -133 -131z" />
    <glyph glyph-name="c" unicode="c" horiz-adv-x="617" 
d="M329 -12c-179 0 -286 96 -286 269c0 168 109 265 277 265c151 0 254 -65 254 -169c0 -16 -4 -36 -10 -52l-120 -6c1 7 2 16 2 25c0 76 -59 100 -120 100c-78 0 -127 -55 -127 -162c0 -106 51 -169 133 -169c49 0 116 28 116 97c0 9 -1 18 -2 24l124 -13
c2 -12 3 -24 3 -35c0 -120 -121 -174 -244 -174z" />
    <glyph glyph-name="d" unicode="d" horiz-adv-x="683" 
d="M627 0h-127l-23 102c-41 -80 -118 -114 -206 -114c-111 0 -228 68 -228 265c0 183 113 269 242 269c65 0 136 -23 178 -75v253h151v-555c0 -11 1 -23 2 -32zM463 223v67c0 86 -71 128 -132 128c-64 0 -133 -32 -133 -166c0 -124 65 -159 129 -159c60 0 136 40 136 130z
" />
    <glyph glyph-name="e" unicode="e" horiz-adv-x="628" 
d="M322 -12c-174 0 -279 94 -279 267c0 163 103 267 277 267c145 0 268 -58 268 -228c0 -17 -2 -35 -4 -54h-387c-1 -97 49 -152 136 -152c61 0 120 21 120 86c0 6 -1 14 -3 21l128 -13c1 -5 2 -14 2 -22c0 -124 -127 -172 -258 -172zM198 300h240c1 6 1 12 1 20
c0 74 -50 105 -117 105c-72 0 -121 -47 -124 -125z" />
    <glyph glyph-name="f" unicode="f" horiz-adv-x="450" 
d="M106 0v412h-91v98h92v43c0 86 63 167 204 167c99 0 172 -30 189 -101c4 -18 4 -31 3 -40l-92 -29c1 7 1 10 1 16c0 39 -27 64 -75 64c-47 0 -79 -23 -79 -78v-42h172v-98h-172v-412h-152z" />
    <glyph glyph-name="g" unicode="g" horiz-adv-x="655" 
d="M220 105h224c108 0 194 -29 194 -134c0 -112 -108 -176 -317 -176c-218 0 -286 46 -286 113c0 32 19 91 124 102c-95 7 -121 65 -121 99c0 52 40 89 105 106c-41 22 -72 66 -72 128c0 110 97 179 259 179c32 0 83 -5 121 -21c42 5 61 33 61 69c0 8 -1 16 -2 23h107
c2 -11 2 -21 2 -31c-2 -53 -28 -92 -82 -115c31 -25 53 -63 53 -111c0 -113 -92 -170 -258 -170c-49 0 -104 8 -138 27c-22 -11 -36 -29 -36 -46c0 -25 20 -42 62 -42zM437 340c0 71 -47 102 -106 102c-56 0 -106 -31 -106 -102c0 -70 52 -102 105 -102c61 0 107 33 107 102
zM415 -13h-164c-55 0 -81 -30 -81 -55c0 -42 52 -60 153 -60c107 0 160 25 160 68c0 31 -24 47 -68 47z" />
    <glyph glyph-name="h" unicode="h" horiz-adv-x="651" 
d="M589 0h-152v315c0 60 -35 94 -95 94c-58 0 -122 -46 -122 -131v-278h-152v700h152v-277c45 75 119 99 180 99c115 0 189 -66 189 -184v-338z" />
    <glyph glyph-name="j" unicode="j" horiz-adv-x="319" 
d="M97 -41v551h152v-529c0 -136 -88 -203 -231 -203c-128 0 -203 45 -203 136c0 9 1 18 2 23l121 27s-1 -6 -1 -12c0 -54 36 -80 81 -80c48 0 79 27 79 87zM252 583h-158v98h158v-98z" />
    <glyph glyph-name="k" unicode="k" horiz-adv-x="638" 
d="M68 0v700h152v-275c43 68 114 97 191 97c113 0 190 -55 190 -160c0 -72 -44 -131 -134 -161l139 -201h-168l-117 179c-12 -1 -29 -1 -41 -1c-19 0 -43 0 -60 2v-180h-152zM220 256c25 -2 49 -3 79 -3c85 0 153 25 153 90c0 45 -33 74 -97 74c-71 0 -134 -49 -135 -134
v-27z" />
    <glyph glyph-name="l" unicode="l" horiz-adv-x="288" 
d="M220 0h-152v700h152v-700z" />
    <glyph glyph-name="m" unicode="m" horiz-adv-x="985" 
d="M923 0h-152v314c0 60 -28 95 -87 95c-51 0 -109 -42 -113 -125v-284h-151v306c0 65 -27 103 -89 103c-51 0 -111 -43 -111 -131v-278h-152v510h113l22 -116c41 97 123 128 186 128c88 0 147 -43 169 -123c38 94 124 123 183 123c115 0 182 -66 182 -192v-330z" />
    <glyph glyph-name="n" unicode="n" horiz-adv-x="651" 
d="M589 0h-152v315c0 60 -35 94 -95 94c-58 0 -122 -46 -122 -131v-278h-152v510h113l22 -118c43 98 127 130 197 130c115 0 189 -66 189 -184v-338z" />
    <glyph glyph-name="o" unicode="o" horiz-adv-x="671" 
d="M336 -12c-182 0 -293 104 -293 267c0 162 111 267 293 267c181 0 292 -105 292 -267c0 -163 -111 -267 -292 -267zM336 85c85 0 138 57 138 170c0 112 -53 169 -138 169c-86 0 -138 -57 -138 -169c0 -113 52 -170 138 -170z" />
    <glyph glyph-name="p" unicode="p" horiz-adv-x="682" 
d="M220 -194h-152v704h118l19 -102c41 80 119 114 207 114c111 0 227 -68 227 -265c0 -183 -112 -269 -241 -269c-65 0 -137 23 -178 75v-257zM219 286v-65c0 -86 71 -129 132 -129c69 0 134 33 134 162c0 126 -63 163 -131 163c-60 0 -135 -41 -135 -131z" />
    <glyph glyph-name="q" unicode="q" horiz-adv-x="683" 
d="M614 -193h-152v270c-51 -66 -119 -89 -189 -89c-119 0 -230 72 -230 259c0 191 106 275 240 275c81 0 167 -29 213 -107l12 95h119l-12 -124c-1 -8 -1 -19 -1 -27v-552zM463 224v68c0 85 -69 126 -134 126c-67 0 -131 -35 -131 -168c0 -122 64 -157 132 -157
c60 0 133 41 133 131z" />
    <glyph glyph-name="r" unicode="r" horiz-adv-x="539" 
d="M503 298l-129 -30c2 12 3 23 3 37c0 55 -19 102 -71 102c-54 0 -86 -59 -86 -126v-281h-152v510h113l22 -112c27 81 93 118 160 118c103 0 147 -70 147 -166c0 -20 -3 -39 -7 -52z" />
    <glyph glyph-name="s" unicode="s" horiz-adv-x="602" 
d="M540 340l-115 -4c1 8 1 14 1 17c0 59 -59 86 -119 86c-64 0 -107 -26 -107 -67c0 -44 48 -56 105 -63l18 -2c100 -13 235 -18 235 -150c0 -112 -99 -169 -256 -169c-138 0 -250 32 -250 132c0 13 1 29 6 44l120 6c-2 -7 -3 -14 -3 -20c0 -57 54 -76 122 -76
s112 27 112 70c0 45 -57 55 -122 62l-19 2c-96 10 -215 25 -215 144c0 101 96 170 245 170c111 0 244 -34 244 -153c0 -9 -1 -20 -2 -29z" />
    <glyph glyph-name="t" unicode="t" horiz-adv-x="550" 
d="M421 217l101 -34c3 -13 5 -28 5 -42c0 -98 -70 -153 -207 -153c-134 0 -209 50 -209 184v240h-96v97h42c59 0 69 26 104 148h92l10 -147h195v-98h-195v-228c0 -64 25 -94 85 -94c46 0 83 28 78 94c-1 11 -2 22 -5 33z" />
    <glyph glyph-name="u" unicode="u" horiz-adv-x="644" 
d="M592 0h-124l-26 117c-43 -95 -126 -129 -194 -129c-112 0 -186 65 -186 188v334h152v-316c0 -59 32 -93 91 -93c56 0 120 45 120 134v275h152v-378z" />
    <glyph glyph-name="v" unicode="v" horiz-adv-x="607" 
d="M389 0h-171l-211 510h163l139 -373l139 373h152z" />
    <glyph glyph-name="w" unicode="w" horiz-adv-x="874" 
d="M681 0h-138l-91 287l-16 56l-15 -56l-91 -287h-138l-179 510h160l100 -351l100 351h127l100 -351l101 351h159z" />
    <glyph glyph-name="x" unicode="x" horiz-adv-x="642" 
d="M637 0h-186l-145 176l-145 -176h-156l224 265l-210 245h188l123 -153l126 153h155l-199 -240z" />
    <glyph glyph-name="y" unicode="y" horiz-adv-x="616" 
d="M251 -53l10 28l-237 535h166l139 -375l130 375h150l-213 -533c-50 -124 -101 -184 -230 -184c-98 0 -171 35 -171 139c0 6 0 16 1 24l137 19c-2 -9 -3 -18 -3 -29c0 -40 18 -62 50 -62c35 0 57 23 71 63z" />
    <glyph glyph-name="z" unicode="z" horiz-adv-x="579" 
d="M544 0h-504v74l291 337h-288v99h486v-75l-287 -337h302v-98z" />
    <glyph glyph-name="braceleft" unicode="{" horiz-adv-x="487" 
d="M435 -98h-63c-159 0 -236 57 -236 208v68c0 65 -17 96 -91 97v104c74 1 91 32 91 97v68c0 151 77 208 236 208h63v-109h-49c-64 0 -99 -31 -99 -104v-83c0 -55 -16 -110 -93 -128v-2c77 -18 93 -73 93 -128v-83c0 -73 35 -104 99 -104h49v-109z" />
    <glyph glyph-name="bar" unicode="|" horiz-adv-x="354" 
d="M252 -198h-150v998h150v-998z" />
    <glyph glyph-name="braceright" unicode="}" horiz-adv-x="487" 
d="M52 -98v109h49c63 0 99 31 99 104v83c0 55 16 110 93 128v2c-77 18 -93 73 -93 128v83c0 73 -36 104 -99 104h-49v109h63c159 0 236 -57 236 -208v-68c0 -65 17 -96 91 -97v-104c-74 -1 -91 -32 -91 -97v-68c0 -151 -77 -208 -236 -208h-63z" />
    <glyph glyph-name="dagger" unicode="&#x2020;" horiz-adv-x="509" 
d="M326 -120h-144v525h-146v110h146v185h144v-185h147v-110h-147v-525z" />
    <glyph glyph-name="cent" unicode="&#xa2;" horiz-adv-x="619" 
d="M445 -151h-78v142c-12 -2 -24 -3 -36 -3c-21 0 -41 2 -59 5v-144h-78v163c-96 38 -149 122 -149 245c0 120 55 204 149 242v158h78v-139c15 2 32 4 50 4c15 0 30 -1 45 -3v138h78v-153c80 -26 130 -79 130 -151c0 -16 -3 -35 -9 -52l-120 -6c1 7 2 16 2 25
c0 76 -59 100 -120 100c-78 0 -127 -55 -127 -162c0 -106 51 -169 133 -169c49 0 116 28 116 97c0 8 -1 17 -2 24l124 -13c2 -12 3 -24 3 -35c0 -82 -56 -133 -130 -158v-155z" />
    <glyph glyph-name="sterling" unicode="&#xa3;" horiz-adv-x="818" 
d="M31 126c0 77 59 131 149 131c32 0 68 -10 100 -30c0 35 -23 69 -44 99h-141v73h103c-24 42 -43 84 -43 125c0 99 89 189 265 189c154 0 262 -64 263 -166c0 -12 -2 -25 -5 -38l-133 -5c1 4 2 11 2 17c0 65 -72 91 -119 91c-72 0 -121 -42 -121 -97c0 -40 22 -80 50 -116
h180v-73h-142c24 -41 42 -86 42 -138c0 -7 -2 -23 -4 -32c43 -31 86 -49 128 -49c69 0 108 40 108 106c0 18 -3 38 -10 59l116 -23c6 -23 8 -51 8 -75c0 -112 -83 -186 -188 -186c-80 0 -147 37 -203 83c-37 -49 -99 -84 -182 -84c-98 0 -179 49 -179 139zM289 138
c-26 30 -57 48 -90 48c-43 0 -65 -31 -65 -63c0 -29 22 -59 66 -59c45 0 79 31 89 74z" />
    <glyph glyph-name="section" unicode="&#xa7;" horiz-adv-x="607" 
d="M304 -68c-149 0 -250 38 -250 135c0 12 2 29 6 41l121 7c-1 -5 -2 -11 -2 -16c0 -59 54 -78 122 -78c67 0 109 24 109 69c0 46 -62 58 -132 68c-101 15 -229 33 -229 153c0 49 25 97 82 119c-51 24 -80 61 -80 118c0 95 92 164 251 164c132 0 237 -48 237 -152
c0 -10 -1 -20 -3 -28l-116 -5c1 6 1 12 1 18c0 55 -52 78 -117 78c-64 0 -109 -23 -109 -66c0 -52 70 -61 149 -72c99 -13 215 -32 215 -148c0 -51 -27 -95 -81 -120c49 -22 79 -57 79 -112c0 -104 -94 -173 -253 -173zM428 308c0 53 -61 65 -136 79c-53 10 -109 5 -109 -54
c0 -55 63 -66 143 -79c78 -10 102 19 102 54z" />
    <glyph glyph-name="bullet" unicode="&#x2022;" horiz-adv-x="295" 
d="M54 239v178h187v-178h-187z" />
    <glyph glyph-name="paragraph" unicode="&#xb6;" horiz-adv-x="728" 
d="M475 10v579h-86v-589h-58v256h-46c-135 0 -243 89 -243 221c0 147 119 223 245 223h417v-111h-116v-560c0 -163 -87 -230 -230 -230c-141 0 -214 62 -214 140c0 10 1 19 2 23l110 22c-1 -8 -2 -14 -2 -25c0 -53 40 -81 104 -81c74 0 117 47 117 132z" />
    <glyph glyph-name="germandbls" unicode="&#xdf;" horiz-adv-x="698" 
d="M267 21v100c43 -21 80 -32 126 -32c76 0 117 43 117 110c0 82 -85 105 -181 111c-11 1 -23 1 -29 1v96c4 0 18 0 27 1c75 6 130 47 130 109c0 56 -47 97 -116 97c-70 0 -127 -41 -127 -130v-484h-149v471c0 183 133 249 272 249c176 0 259 -88 259 -185
c0 -73 -52 -141 -152 -166v-1c123 -12 219 -70 219 -178c0 -127 -96 -202 -239 -202c-51 0 -111 14 -157 33z" />
    <glyph glyph-name="copyright" unicode="&#xa9;" horiz-adv-x="822" 
d="M411 -26c-207 0 -361 160 -361 369s154 369 361 369s361 -160 361 -369s-154 -369 -361 -369zM410 3c189 0 331 148 331 340c0 191 -142 339 -331 339c-188 0 -330 -148 -330 -339c0 -192 142 -340 330 -340zM199 345c0 125 87 201 213 201c146 0 202 -69 202 -135
c0 -9 -1 -19 -1 -19l-91 -13c1 4 2 12 2 20c0 53 -52 77 -106 77c-72 0 -124 -43 -124 -131c0 -100 60 -134 125 -134c52 0 106 26 106 78c0 7 -1 15 -3 20l90 -9c1 -4 2 -11 2 -18c0 -70 -57 -141 -195 -141c-143 0 -220 78 -220 204z" />
    <glyph glyph-name="acute" unicode="&#xb4;" 
d="M520 721l-153 -160h-123l109 160h167z" />
    <glyph glyph-name="dieresis" unicode="&#xa8;" 
d="M292 579h-148v129h148v-129zM546 579h-148v129h148v-129z" />
    <glyph glyph-name="notequal" unicode="&#x2260;" horiz-adv-x="695" 
d="M650 124h-350l-68 -104h-115l68 104h-140v111h205l91 137h-296v111h361l69 104h115l-69 -104h129v-111h-194l-91 -137h285v-111z" />
    <glyph glyph-name="plusminus" unicode="&#xb1;" horiz-adv-x="697" 
d="M651 328h-245v-184h-115v184h-245v105h245v185h115v-185h245v-105zM651 0h-605v105h605v-105z" />
    <glyph glyph-name="florin" unicode="&#x192;" horiz-adv-x="520" 
d="M478 308h-152v-323c0 -126 -61 -204 -202 -204c-42 0 -90 6 -138 19l8 101c35 -12 66 -18 94 -18c53 0 86 30 86 108v317h-131v98h131v108c0 126 62 204 203 204c41 0 90 -6 138 -19l-8 -101c-36 12 -66 18 -94 18c-54 0 -87 -29 -87 -108v-102h152v-98z" />
    <glyph glyph-name="approxequal" unicode="&#x2248;" horiz-adv-x="689" 
d="M607 500l39 -91c-46 -60 -103 -82 -168 -82c-97 0 -184 81 -278 81c-42 0 -87 -14 -124 -56l-39 91c46 60 103 82 168 82c97 0 184 -81 278 -81c42 0 87 14 124 56zM613 249l39 -92c-46 -59 -103 -82 -168 -82c-97 0 -184 82 -278 82c-42 0 -87 -15 -124 -57l-39 92
c46 59 103 82 168 82c97 0 184 -82 278 -82c42 0 87 15 124 57z" />
    <glyph glyph-name="guillemotleft" unicode="&#xab;" horiz-adv-x="770" 
d="M418 63h-166l-222 268l222 268h166l-224 -268zM740 63h-166l-222 268l222 268h166l-224 -268z" />
    <glyph glyph-name="guillemotright" unicode="&#xbb;" horiz-adv-x="770" 
d="M518 63h-166l224 268l-224 268h166l222 -268zM196 63h-166l224 268l-224 268h166l222 -268z" />
    <glyph glyph-name="endash" unicode="&#x2013;" 
d="M654 253h-618v111h618v-111z" />
    <glyph glyph-name="emdash" unicode="&#x2014;" horiz-adv-x="930" 
d="M894 253h-858v111h858v-111z" />
    <glyph glyph-name="quotedblleft" unicode="&#x201c;" horiz-adv-x="460" 
d="M182 422h-142l77 278h117zM384 422h-142l77 278h117z" />
    <glyph glyph-name="quotedblright" unicode="&#x201d;" horiz-adv-x="452" 
d="M300 700h142l-77 -278h-117zM98 700h142l-77 -278h-117z" />
    <glyph glyph-name="quoteleft" unicode="&#x2018;" horiz-adv-x="258" 
d="M182 422h-142l77 278h117z" />
    <glyph glyph-name="quoteright" unicode="&#x2019;" horiz-adv-x="250" 
d="M162 422h-116l51 278h143z" />
    <glyph glyph-name="guilsinglleft" unicode="&#x2039;" horiz-adv-x="448" 
d="M418 63h-166l-222 268l222 268h166l-224 -268z" />
    <glyph glyph-name="guilsinglright" unicode="&#x203a;" horiz-adv-x="448" 
d="M196 63h-166l224 268l-224 268h166l222 -268z" />
    <glyph glyph-name="daggerdbl" unicode="&#x2021;" horiz-adv-x="529" 
d="M336 -197h-144v381h-146v103h146v124h-146v104h146v185h144v-185h147v-104h-147v-124h147v-103h-147v-381z" />
    <glyph glyph-name="periodcentered" unicode="&#xb7;" horiz-adv-x="280" 
d="M223 270h-166v147h166v-147z" />
    <glyph glyph-name="perthousand" unicode="&#x2030;" horiz-adv-x="1532" 
d="M249 244c-146 0 -195 110 -195 235c0 124 49 233 195 233c145 0 194 -109 194 -233c0 -125 -49 -235 -194 -235zM421 0h-120l371 700h118zM248 329c57 0 79 63 79 150s-22 149 -79 149s-79 -62 -79 -149s22 -150 79 -150zM846 -12c-146 0 -195 110 -195 235
s49 233 195 233c145 0 194 -108 194 -233s-49 -235 -194 -235zM845 73c57 0 79 63 79 150c0 86 -22 149 -79 149s-79 -63 -79 -149c0 -87 22 -150 79 -150zM1285 -12c-146 0 -195 110 -195 235s49 233 195 233c145 0 194 -108 194 -233s-49 -235 -194 -235zM1284 73
c57 0 79 63 79 150c0 86 -22 149 -79 149s-79 -63 -79 -149c0 -87 22 -150 79 -150z" />
    <glyph glyph-name="apple" unicode="&#xf8ff;" horiz-adv-x="595" 
 />
    <glyph glyph-name="dotlessi" unicode="&#x131;" horiz-adv-x="288" 
d="M220 0h-152v510h152v-510z" />
    <glyph glyph-name="circumflex" unicode="&#x2c6;" 
d="M553 577h-130l-78 96l-78 -96h-130l136 162h144z" />
    <glyph glyph-name="tilde" unicode="&#x2dc;" 
d="M487 735l57 -7c4 -18 6 -36 6 -51c0 -70 -47 -100 -95 -100c-78 0 -154 82 -214 82c-27 0 -42 -16 -42 -45c0 -8 2 -16 4 -25l-56 7c-4 18 -6 37 -6 51c0 70 47 100 95 100c78 0 153 -82 213 -82c27 0 42 16 42 45c0 8 -1 16 -4 25z" />
    <glyph glyph-name="ring" unicode="&#x2da;" 
d="M491 668c0 -59 -56 -106 -143 -106s-143 47 -143 106c0 61 56 107 143 107s143 -46 143 -107zM410 668c0 30 -25 53 -62 53s-62 -23 -62 -53c0 -28 25 -52 62 -52s62 24 62 52z" />
    <glyph glyph-name="cedilla" unicode="&#xb8;" 
d="M228 -201v71c31 -15 62 -23 94 -23c31 0 51 12 51 35c0 22 -19 34 -63 34h-29v92h86v-56c63 -5 104 -35 104 -82c0 -56 -48 -94 -132 -94c-41 0 -77 7 -111 23z" />
    <glyph glyph-name="ogonek" unicode="&#x2db;" 
d="M461 -121v-77c-37 -15 -69 -21 -105 -21c-80 0 -124 37 -124 100c0 48 36 99 78 126h107c-35 -31 -60 -65 -60 -98c0 -27 18 -44 47 -44c20 0 35 5 57 14z" />
    <glyph glyph-name="percent" unicode="%" horiz-adv-x="1143" 
d="M261 244c-156 0 -209 110 -209 235c0 124 53 233 209 233s208 -109 208 -233c0 -125 -52 -235 -208 -235zM446 0h-119l370 700h119zM261 329c59 0 81 63 81 150s-22 149 -81 149s-81 -62 -81 -149s22 -150 81 -150zM882 -12c-156 0 -208 110 -208 235s52 233 208 233
s208 -108 208 -233s-52 -235 -208 -235zM882 73c59 0 81 63 81 150c0 86 -22 149 -81 149s-81 -63 -81 -149c0 -87 22 -150 81 -150z" />
    <glyph glyph-name="ampersand" unicode="&#x26;" horiz-adv-x="878" 
d="M870 0h-194l-93 78c-65 -50 -151 -90 -264 -90c-160 0 -270 77 -270 194c0 102 84 162 192 191c-76 57 -110 108 -110 170c0 79 65 169 243 169c151 0 236 -68 236 -157c0 -94 -75 -149 -176 -186l160 -138c61 59 98 133 113 207h129c-14 -108 -83 -212 -155 -283
c18 -16 170 -135 189 -152v-3zM493 151l-177 156c-62 -26 -112 -58 -112 -112c0 -69 57 -104 135 -104c53 0 109 22 154 60zM362 437c63 25 106 60 106 116c0 38 -29 74 -91 74c-59 0 -89 -32 -89 -76c0 -36 23 -71 74 -114z" />
    <glyph glyph-name="quotesingle" unicode="'" horiz-adv-x="253" 
d="M191 412h-129v288h129v-288z" />
    <glyph glyph-name="parenleft" unicode="(" horiz-adv-x="380" 
d="M357 -56h-153c-76 87 -139 213 -139 393s63 306 139 393h153c-81 -101 -137 -225 -137 -393s56 -292 137 -393z" />
    <glyph glyph-name="parenright" unicode=")" horiz-adv-x="380" 
d="M177 -56h-154c81 101 138 225 138 393s-57 292 -138 393h154c76 -87 138 -213 138 -393s-62 -306 -138 -393z" />
    <glyph glyph-name="asterisk" unicode="*" horiz-adv-x="515" 
d="M462 381l-162 78v-123h-85v123l-162 -78v93l141 60l-141 60v93l162 -78v123h85v-123l162 78v-93l-140 -60l140 -60v-93z" />
    <glyph glyph-name="plus" unicode="+" horiz-adv-x="701" 
d="M665 248h-257v-248h-115v248h-257v111h257v247h115v-247h257v-111z" />
    <glyph glyph-name="comma" unicode="," horiz-adv-x="278" 
d="M34 -150l55 300h149l-81 -300h-123z" />
    <glyph glyph-name="hyphen" unicode="-" horiz-adv-x="533" 
d="M497 253h-461v111h461v-111z" />
    <glyph glyph-name="period" unicode="." horiz-adv-x="278" 
d="M59 0v150h160v-150h-160z" />
    <glyph glyph-name="slash" unicode="/" horiz-adv-x="496" 
d="M157 -107h-150l326 807h151z" />
    <glyph glyph-name="zero" unicode="0" horiz-adv-x="741" 
d="M370 90c124 0 161 105 161 259c0 155 -37 261 -161 261c-122 0 -160 -106 -160 -261c0 -154 38 -259 160 -259zM370 -12c-236 0 -317 156 -317 361s81 363 317 363c237 0 318 -157 318 -363c0 -205 -81 -361 -318 -361z" />
    <glyph glyph-name="one" unicode="1" horiz-adv-x="457" 
d="M379 0h-154v524c-64 -36 -142 -51 -208 -51v102c111 4 223 40 285 125h77v-700z" />
    <glyph glyph-name="two" unicode="2" horiz-adv-x="676" 
d="M628 0h-564v48c0 145 112 204 217 254c93 45 187 91 187 186c0 68 -54 112 -138 112c-76 0 -138 -47 -138 -122c0 -17 1 -31 6 -47l-144 14c-4 17 -6 33 -6 50c0 132 115 217 291 217c190 0 288 -98 288 -217c0 -161 -149 -227 -255 -277c-58 -28 -111 -56 -119 -106h375
v-112z" />
    <glyph glyph-name="three" unicode="3" horiz-adv-x="672" 
d="M250 320v75c10 -1 19 -1 28 -1c106 0 178 41 178 115c0 51 -44 93 -129 93c-79 0 -142 -42 -142 -114c0 -8 1 -16 2 -19l-132 13c-1 10 -2 19 -2 28c0 132 123 202 289 202c194 0 273 -92 273 -182c0 -77 -48 -139 -148 -162c108 -18 167 -81 167 -172
c0 -105 -93 -208 -302 -208c-183 0 -290 65 -290 176c0 21 4 45 12 67l135 12c-6 -16 -9 -30 -9 -44c0 -63 56 -107 146 -107c88 0 149 46 149 117c0 83 -83 114 -184 114c-17 0 -29 -1 -41 -3z" />
    <glyph glyph-name="four" unicode="4" horiz-adv-x="686" 
d="M556 0h-153v143h-370v96l377 461h146v-451h98v-106h-98v-143zM403 249v285l-229 -285h229z" />
    <glyph glyph-name="five" unicode="5" horiz-adv-x="675" 
d="M585 589h-361l-29 -171c52 41 116 60 184 60c137 0 254 -81 254 -231c0 -182 -139 -259 -302 -259c-128 0 -282 50 -282 192c0 14 1 28 3 39l132 17c-2 -8 -3 -16 -3 -25c0 -86 72 -119 147 -119c86 0 151 52 151 155c0 98 -68 141 -145 141c-67 0 -124 -25 -168 -81
l-98 38l53 355h464v-111z" />
    <glyph glyph-name="six" unicode="6" horiz-adv-x="708" 
d="M638 537c0 -7 0 -14 -1 -22c0 0 -114 -32 -117 -32c0 3 1 10 1 16c0 67 -51 107 -145 107c-123 0 -165 -78 -165 -184v-49c48 54 125 78 202 78c138 0 246 -74 246 -221c0 -149 -113 -242 -297 -242c-180 0 -307 90 -307 297v107c0 215 129 320 318 320
c140 0 265 -47 265 -175zM503 225c0 69 -44 126 -145 126c-73 0 -131 -34 -148 -88c-2 -125 63 -176 153 -176c84 0 140 48 140 138z" />
    <glyph glyph-name="seven" unicode="7" horiz-adv-x="651" 
d="M386 0h-151c-1 17 -2 40 -2 56c0 227 109 403 235 533h-314v-98h-108v209h574v-97c-159 -157 -237 -323 -237 -529c0 -23 1 -51 3 -74z" />
    <glyph glyph-name="eight" unicode="8" horiz-adv-x="714" 
d="M486 509c0 68 -53 104 -129 104s-130 -36 -130 -104c0 -64 62 -103 130 -103c67 0 129 39 129 103zM500 367v-1c101 -20 168 -86 168 -177c0 -140 -130 -201 -311 -201s-311 61 -311 201c0 91 66 157 168 177v1c-85 15 -142 74 -142 154c0 126 130 191 285 191
s285 -65 285 -191c0 -80 -57 -139 -142 -154zM514 202c0 67 -62 109 -157 109s-157 -42 -157 -109c0 -66 59 -112 157 -112c97 0 157 46 157 112z" />
    <glyph glyph-name="nine" unicode="9" horiz-adv-x="708" 
d="M69 163c0 7 0 14 1 22l118 32c-1 -7 -1 -11 -1 -18c0 -65 50 -105 145 -105c123 0 165 78 165 184v49c-49 -54 -125 -78 -202 -78c-138 0 -246 74 -246 221c0 149 113 242 296 242c181 0 308 -90 308 -297v-107c0 -215 -129 -320 -318 -320c-140 0 -266 47 -266 175z
M498 437c2 125 -63 176 -153 176c-84 0 -140 -48 -140 -138c0 -69 44 -126 144 -126c74 0 131 34 149 88z" />
    <glyph glyph-name="colon" unicode=":" horiz-adv-x="292" 
d="M66 0v150h161v-150h-161zM66 312v150h161v-150h-161z" />
    <glyph glyph-name="semicolon" unicode=";" horiz-adv-x="292" 
d="M147 -150h-123l55 300h148zM231 312h-161v150h161v-150z" />
    <glyph glyph-name="less" unicode="&#x3c;" horiz-adv-x="623" 
d="M580 -2l-539 286v127l539 286v-130l-423 -219l423 -220v-130z" />
    <glyph glyph-name="equal" unicode="=" horiz-adv-x="692" 
d="M647 124h-602v111h602v-111zM647 372h-602v111h602v-111z" />
    <glyph glyph-name="greater" unicode="&#x3e;" horiz-adv-x="623" 
d="M582 284l-539 -286v130l423 220l-423 219v130l539 -286v-127z" />
    <glyph glyph-name="question" unicode="?" horiz-adv-x="591" 
d="M294 201h-95l-20 168c99 -5 233 13 233 130c0 62 -45 101 -123 101c-68 0 -124 -32 -124 -99c0 -10 1 -19 3 -28l-127 13c-3 15 -4 30 -4 43c0 131 118 183 258 183c181 0 262 -98 262 -204c0 -135 -96 -210 -243 -213h-12zM333 0h-169v129h169v-129z" />
    <glyph glyph-name="at" unicode="@" horiz-adv-x="1112" 
d="M829 -69l1 -69c-68 -35 -175 -55 -281 -55c-268 0 -487 147 -487 440c0 223 140 465 506 465c315 0 483 -176 483 -392c0 -166 -81 -292 -228 -292c-112 0 -153 75 -158 103c-36 -68 -102 -94 -164 -94c-99 0 -190 58 -190 214c0 154 93 222 199 222
c54 0 114 -20 152 -71l14 63h95v-285c0 -59 33 -84 77 -84c76 0 134 82 134 217c0 188 -147 340 -412 340c-295 0 -438 -192 -438 -401c0 -273 214 -383 415 -383c82 0 198 16 282 62zM653 245v29c0 82 -56 116 -113 116c-52 0 -108 -25 -108 -136c0 -107 51 -134 106 -134
c57 0 115 35 115 125z" />
    <glyph glyph-name="A" unicode="A" horiz-adv-x="776" 
d="M774 0h-165l-52 129h-338l-52 -129h-165l296 700h181zM517 236l-130 318l-129 -318h259z" />
    <glyph glyph-name="B" unicode="B" horiz-adv-x="733" 
d="M449 0h-378v700h323c202 0 251 -102 251 -176c0 -58 -36 -132 -128 -159v-1c124 -14 179 -80 179 -168c0 -94 -68 -196 -247 -196zM230 114h191c64 0 114 28 114 98c0 55 -41 95 -133 95h-172v-193zM230 397h134c70 0 119 40 119 100c0 49 -33 89 -113 89h-140v-189z" />
    <glyph glyph-name="C" unicode="C" horiz-adv-x="829" 
d="M428 -12c-248 0 -385 139 -385 363s155 361 377 361c272 0 366 -134 366 -257c0 -11 -1 -21 -2 -31l-157 -22c3 16 3 26 3 38c0 103 -91 152 -199 152c-130 0 -224 -80 -224 -241c0 -180 109 -244 229 -244c100 0 197 53 197 154c0 15 -1 27 -4 42l154 -17
c2 -11 3 -21 3 -33c0 -129 -97 -265 -358 -265z" />
    <glyph glyph-name="D" unicode="D" horiz-adv-x="829" 
d="M391 0h-320v700h314c270 0 400 -117 400 -345c0 -223 -127 -355 -394 -355zM229 111h164c157 0 229 92 229 241c0 162 -80 237 -229 237h-164v-478z" />
    <glyph glyph-name="E" unicode="E" horiz-adv-x="706" 
d="M662 0h-591v700h591v-121h-432v-165h374v-115h-374v-179h432v-120z" />
    <glyph glyph-name="F" unicode="F" horiz-adv-x="680" 
d="M611 262h-382v-262h-158v700h571v-121h-413v-197h382v-120z" />
    <glyph glyph-name="G" unicode="G" horiz-adv-x="846" 
d="M784 0h-104l-17 109c-27 -38 -69 -72 -124 -95c-41 -17 -85 -26 -137 -26c-221 0 -359 139 -359 362c0 225 148 362 390 362c236 0 352 -114 352 -239c0 -10 -1 -21 -1 -21l-157 -28c2 11 3 21 3 30c0 95 -89 145 -196 145c-136 0 -227 -87 -227 -246
c0 -183 104 -252 229 -252c31 0 70 6 102 22c46 22 85 64 85 121v17h-204v100h365v-361z" />
    <glyph glyph-name="H" unicode="H" horiz-adv-x="823" 
d="M752 0h-158v310h-364v-310h-159v700h159v-275h364v275h158v-700z" />
    <glyph glyph-name="I" unicode="I" horiz-adv-x="613" 
d="M579 0h-545v120h193v460h-193v120h545v-120h-193v-460h193v-120z" />
    <glyph glyph-name="J" unicode="J" horiz-adv-x="680" 
d="M314 -12c-170 0 -286 61 -286 235c0 15 1 30 3 44l150 11c-4 -18 -5 -33 -5 -47c0 -103 74 -129 147 -129c80 0 140 45 140 145v453h159v-456c0 -182 -136 -256 -308 -256z" />
    <glyph glyph-name="K" unicode="K" horiz-adv-x="768" 
d="M767 0h-178l-195 344l-164 -170v-174h-159v700h159v-347l335 347h183l-245 -250z" />
    <glyph glyph-name="L" unicode="L" horiz-adv-x="665" 
d="M635 0h-564v700h159v-577h405v-123z" />
    <glyph glyph-name="M" unicode="M" horiz-adv-x="1041" 
d="M970 0h-154v550l-219 -550h-153l-219 551v-551h-154v700h239l211 -536l210 536h239v-700z" />
    <glyph glyph-name="N" unicode="N" horiz-adv-x="838" 
d="M766 0h-165l-377 479v-479h-153v700h167l375 -479v479h153v-700z" />
    <glyph glyph-name="O" unicode="O" horiz-adv-x="883" 
d="M442 -12c-246 0 -399 133 -399 362s153 362 399 362c245 0 398 -133 398 -362s-153 -362 -398 -362zM442 101c137 0 234 79 234 249s-97 249 -234 249c-138 0 -235 -79 -235 -249s97 -249 235 -249z" />
    <glyph glyph-name="P" unicode="P" horiz-adv-x="719" 
d="M230 0h-159v700h331c174 0 285 -84 285 -238c0 -167 -127 -241 -284 -241h-173v-221zM230 333h159c102 0 137 50 137 129s-39 127 -137 127h-159v-256z" />
    <glyph glyph-name="Q" unicode="Q" horiz-adv-x="884" 
d="M442 -12c-246 0 -399 133 -399 362s153 362 399 362c245 0 398 -133 398 -362c0 -155 -74 -263 -194 -312l177 -84v-147l-352 182c-10 -1 -20 -1 -29 -1zM442 101c137 0 234 79 234 249s-97 249 -234 249c-138 0 -235 -79 -235 -249s97 -249 235 -249z" />
    <glyph glyph-name="R" unicode="R" horiz-adv-x="744" 
d="M725 0h-168l-35 126c-25 93 -63 135 -122 146c-12 2 -26 3 -45 3h-125v-275h-159v700h350c159 0 275 -58 275 -209c0 -86 -46 -156 -146 -182c89 -31 115 -92 132 -169c9 -40 29 -105 43 -140zM230 383h187c88 0 118 48 118 105c0 52 -29 98 -124 98h-181v-203z" />
    <glyph glyph-name="S" unicode="S" horiz-adv-x="754" 
d="M373 -12c-179 0 -323 46 -323 178c0 10 2 19 2 19l120 31s-1 -9 -1 -18c0 -81 93 -103 199 -103c110 0 180 35 180 103c0 50 -32 81 -123 90l-168 17c-137 14 -205 81 -205 187c0 151 135 220 325 220c157 0 304 -52 304 -182c0 -7 -1 -18 -2 -23l-127 -32c1 4 2 11 2 19
c0 77 -84 111 -177 111c-113 0 -165 -41 -165 -98c0 -54 37 -77 117 -85l155 -15c141 -14 222 -69 222 -193c0 -168 -151 -226 -335 -226z" />
    <glyph glyph-name="T" unicode="T" horiz-adv-x="718" 
d="M438 0h-158v577h-250v123h658v-123h-250v-577z" />
    <glyph glyph-name="U" unicode="U" horiz-adv-x="807" 
d="M404 -12c-214 0 -338 96 -338 279v433h158v-429c0 -113 71 -164 180 -164s179 51 179 164v429h158v-433c0 -183 -123 -279 -337 -279z" />
    <glyph glyph-name="V" unicode="V" horiz-adv-x="771" 
d="M476 0h-181l-294 700h166l219 -554l218 554h166z" />
    <glyph glyph-name="W" unicode="W" horiz-adv-x="1083" 
d="M847 0h-157l-148 521l-149 -521h-157l-223 700h165l148 -510h3l141 510h143l141 -510h3l148 510h165z" />
    <glyph glyph-name="X" unicode="X" horiz-adv-x="767" 
d="M769 0h-192l-194 257l-193 -257h-192l284 361l-270 339h192l181 -231l177 231h192l-268 -339z" />
    <glyph glyph-name="Y" unicode="Y" horiz-adv-x="726" 
d="M442 0h-158v258l-281 442h177l183 -312l183 312h177l-281 -442v-258z" />
    <glyph glyph-name="Z" unicode="Z" horiz-adv-x="722" 
d="M682 0h-641v103l425 485h-422v112h618v-104l-425 -485h445v-111z" />
    <glyph glyph-name="brokenbar" unicode="&#xa6;" horiz-adv-x="354" 
d="M252 358h-150v442h150v-442zM252 -198h-150v445h150v-445z" />
    <glyph glyph-name="minus" unicode="&#x2212;" horiz-adv-x="677" 
d="M641 239h-605v111h605v-111z" />
    <glyph glyph-name="exclam" unicode="!" horiz-adv-x="307" 
d="M238 0h-169v130h169v-130zM212 210h-118l-21 215v275h161v-275z" />
    <glyph glyph-name="quotedbl" unicode="&#x22;" horiz-adv-x="472" 
d="M191 420h-129v280h129v-280zM410 420h-128v280h128v-280z" />
    <glyph glyph-name="numbersign" unicode="#" horiz-adv-x="848" 
d="M574 0h-122l33 179h-190l-33 -179h-123l34 179h-138l15 98h141l29 159h-143l16 97h145l32 167h121l-31 -167h190l32 167h121l-30 -167h140l-15 -97h-143l-30 -159h146l-16 -98h-148zM503 277l30 159h-190l-31 -159h191z" />
    <glyph glyph-name="dollar" unicode="$" horiz-adv-x="706" 
d="M480 -104h-77v108c-10 -1 -36 -2 -46 -2c-9 0 -40 1 -49 2v-108h-78v117c-108 19 -179 71 -183 175l120 32c-4 -96 77 -116 182 -116c100 0 163 34 163 100c0 49 -29 78 -112 87l-156 17c-127 13 -189 76 -189 181c0 104 69 168 175 194v125h78v-113c14 2 28 3 44 3
c17 0 35 -1 51 -3v113h77v-124c93 -23 159 -74 159 -159c0 -8 0 -14 -2 -24l-119 -30c1 3 1 11 1 17c0 75 -74 108 -165 108c-99 0 -148 -39 -148 -94c0 -53 33 -78 108 -84l142 -12c121 -10 207 -67 207 -180c0 -125 -77 -188 -183 -211v-119z" />
    <glyph glyph-name="asciitilde" unicode="~" 
d="M553 511l92 -68c-35 -110 -97 -158 -178 -158c-93 0 -160 90 -235 90c-38 0 -73 -26 -95 -97l-92 68c35 109 97 158 178 158c93 0 161 -91 235 -91c38 0 73 27 95 98z" />
    <glyph glyph-name="degree" unicode="&#xb0;" horiz-adv-x="306" 
d="M153 545c32 0 49 23 49 50c0 28 -17 51 -49 51s-49 -23 -49 -51c0 -27 17 -50 49 -50zM153 489c-74 0 -119 47 -119 106s45 106 119 106s119 -47 119 -106s-45 -106 -119 -106z" />
    <glyph glyph-name="infinity" unicode="&#x221e;" horiz-adv-x="1110" 
d="M491 274c-54 83 -125 124 -192 124c-82 0 -136 -57 -136 -124s54 -124 136 -124c67 0 138 41 192 124zM555 192c-79 -102 -171 -148 -266 -148c-148 0 -248 99 -248 230s100 230 248 230c95 0 187 -46 266 -148c79 101 172 148 266 148c148 0 248 -99 248 -230
s-100 -230 -248 -230c-94 0 -187 47 -266 148zM619 274c55 -83 125 -124 192 -124c82 0 136 57 136 124s-54 124 -136 124c-67 0 -137 -41 -192 -124z" />
    <glyph glyph-name="lessequal" unicode="&#x2264;" horiz-adv-x="675" 
d="M627 0h-581v105h581v-105zM626 149l-577 194v132l577 205v-110l-469 -161l469 -151v-109z" />
    <glyph glyph-name="greaterequal" unicode="&#x2265;" horiz-adv-x="675" 
d="M629 0h-581v105h581v-105zM626 343l-578 -194v109l470 151l-470 161v110l578 -205v-132z" />
    <glyph glyph-name="summation" unicode="&#x2211;" horiz-adv-x="629" 
d="M599 -205h-563v99l242 352l-242 353v101h563v-112h-386l229 -341l-229 -340h386v-112z" />
    <glyph glyph-name="product" unicode="&#x220f;" horiz-adv-x="768" 
d="M695 -205h-151v794h-321v-794h-150v905h622v-905z" />
    <glyph glyph-name="pi" unicode="&#x3c0;" horiz-adv-x="858" 
d="M779 105v-98c-34 -10 -63 -17 -104 -17c-92 0 -149 59 -149 167v255h-205v-412h-152v412h-143v98h806v-98h-154v-234c0 -54 23 -81 60 -81c13 0 27 3 41 8z" />
    <glyph glyph-name="integral" unicode="&#x222b;" horiz-adv-x="422" 
d="M19 -213v115c11 -2 31 -5 51 -5c37 0 65 18 65 74v629c0 121 66 173 159 173c45 0 76 -6 109 -16v-116c-11 2 -31 5 -51 5c-37 0 -65 -18 -65 -75v-629c0 -120 -65 -172 -159 -172c-45 0 -76 7 -109 17z" />
    <glyph glyph-name="Omega" unicode="&#x2126;" horiz-adv-x="840" 
d="M795 0h-347v108c110 78 171 186 171 293c0 119 -64 206 -199 206s-199 -87 -199 -206c0 -107 61 -215 171 -293v-108h-347v107h205c-124 74 -194 194 -194 306c0 155 108 299 364 299s364 -144 364 -299c0 -112 -70 -232 -194 -306h205v-107z" />
    <glyph glyph-name="logicalnot" unicode="&#xac;" horiz-adv-x="591" 
d="M536 82h-115v181h-381v111h496v-292z" />
    <glyph glyph-name="radical" unicode="&#x221a;" horiz-adv-x="721" 
d="M457 -146h-150l-155 544h-117v112h234l106 -411l161 672h164z" />
    <glyph glyph-name="Delta" unicode="&#x2206;" horiz-adv-x="694" 
d="M662 0h-630v107l216 593h197l217 -593v-107zM505 120l-156 443h-5l-155 -443h316z" />
    <glyph glyph-name="divide" unicode="&#xf7;" horiz-adv-x="683" 
d="M647 248h-611v111h611v-111zM412 462h-141v144h141v-144zM412 0h-141v144h141v-144z" />
    <glyph glyph-name="lozenge" unicode="&#x25ca;" horiz-adv-x="639" 
d="M319 142l137 205l-137 206l-136 -206zM372 -8h-106l-236 355l236 356h106l237 -356z" />
    <glyph glyph-name="quotesinglbase" unicode="&#x201a;" horiz-adv-x="257" 
d="M32 -132l52 278h142l-77 -278h-117z" />
    <glyph glyph-name="quotedblbase" unicode="&#x201e;" horiz-adv-x="464" 
d="M238 -132l52 278h142l-78 -278h-116zM36 -132l52 278h142l-78 -278h-116z" />
    <glyph glyph-name="macron" unicode="&#xaf;" 
d="M553 605h-416v97h416v-97z" />
    <glyph glyph-name="breve" unicode="&#x2d8;" 
d="M416 739h113c-2 -99 -64 -154 -184 -154s-182 55 -184 154h113c3 -55 35 -75 71 -75s68 20 71 75z" />
    <glyph glyph-name="dotaccent" unicode="&#x2d9;" 
d="M420 598h-150v130h150v-130z" />
    <glyph glyph-name="hungarumlaut" unicode="&#x2dd;" 
d="M285 567h-123l105 160h149zM496 567h-122l105 160h148z" />
    <glyph glyph-name="caron" unicode="&#x2c7;" 
d="M417 575h-144l-136 162h130l78 -95l78 95h130z" />
    <glyph glyph-name="eth" unicode="&#xf0;" horiz-adv-x="671" 
d="M217 703h183c60 -57 119 -128 161 -202c43 -76 67 -153 67 -240c0 -163 -111 -273 -292 -273c-182 0 -293 104 -293 267c0 149 94 264 250 264c33 0 64 -5 92 -17c-41 66 -99 137 -168 201zM336 85c85 0 138 57 138 170c0 112 -53 169 -138 169c-86 0 -138 -57 -138 -169
c0 -113 52 -170 138 -170z" />
    <glyph glyph-name="Lslash" unicode="&#x141;" horiz-adv-x="736" 
d="M709 0h-564v282l-124 -56v121l124 55v298h158v-227l154 70v-120l-154 -70v-230h406v-123z" />
    <glyph glyph-name="lslash" unicode="&#x142;" horiz-adv-x="468" 
d="M308 0h-152v276l-136 -61v121l136 61v306h152v-238l140 63v-119l-140 -64v-345z" />
    <glyph glyph-name="Scaron" unicode="&#x160;" horiz-adv-x="754" 
d="M373 -12c-179 0 -323 46 -323 178c0 10 2 19 2 19l120 31s-1 -9 -1 -18c0 -81 93 -103 199 -103c110 0 180 35 180 103c0 50 -32 81 -123 90l-168 17c-137 14 -205 81 -205 187c0 151 135 220 325 220c157 0 304 -52 304 -182c0 -7 -1 -18 -2 -23l-127 -32c1 4 2 11 2 19
c0 77 -84 111 -177 111c-113 0 -165 -41 -165 -98c0 -54 37 -77 117 -85l155 -15c141 -14 222 -69 222 -193c0 -168 -151 -226 -335 -226zM448 753h-144l-136 162h130l78 -95l78 95h130z" />
    <glyph glyph-name="Yacute" unicode="&#xdd;" horiz-adv-x="726" 
d="M442 0h-158v258l-281 442h177l183 -312l183 312h177l-281 -442v-258zM568 909l-153 -160h-123l109 160h167z" />
    <glyph glyph-name="scaron" unicode="&#x161;" horiz-adv-x="602" 
d="M540 340l-115 -4c1 8 1 14 1 17c0 59 -59 86 -119 86c-64 0 -107 -26 -107 -67c0 -44 48 -56 105 -63l18 -2c100 -13 235 -18 235 -150c0 -112 -99 -169 -256 -169c-138 0 -250 32 -250 132c0 13 1 29 6 44l120 6c-2 -7 -3 -14 -3 -20c0 -57 54 -76 122 -76
s112 27 112 70c0 45 -57 55 -122 62l-19 2c-96 10 -215 25 -215 144c0 101 96 170 245 170c111 0 244 -34 244 -153c0 -9 -1 -20 -2 -29zM372 572h-144l-136 162h130l78 -95l78 95h130z" />
    <glyph glyph-name="yacute" unicode="&#xfd;" horiz-adv-x="616" 
d="M251 -53l10 28l-237 535h166l139 -375l130 375h150l-213 -533c-50 -124 -101 -184 -230 -184c-98 0 -171 35 -171 139c0 6 0 16 1 24l137 19c-2 -9 -3 -18 -3 -29c0 -40 18 -62 50 -62c35 0 57 23 71 63zM524 721l-153 -160h-123l109 160h167z" />
    <glyph glyph-name="Zcaron" unicode="&#x17d;" horiz-adv-x="722" 
d="M682 0h-641v103l425 485h-422v112h618v-104l-425 -485h445v-111zM425 750h-144l-136 162h130l78 -95l78 95h130z" />
    <glyph glyph-name="zcaron" unicode="&#x17e;" horiz-adv-x="579" 
d="M544 0h-504v74l291 337h-288v99h486v-75l-287 -337h302v-98zM360 568h-144l-136 162h130l78 -95l78 95h130z" />
    <glyph glyph-name="Adieresis" unicode="&#xc4;" horiz-adv-x="776" 
d="M774 0h-165l-52 129h-338l-52 -129h-165l296 700h181zM517 236l-130 318l-129 -318h259zM334 752h-148v129h148v-129zM588 752h-148v129h148v-129z" />
    <glyph glyph-name="Aring" unicode="&#xc5;" horiz-adv-x="776" 
d="M530 800c0 -37 -22 -68 -58 -85l302 -715h-165l-52 129h-338l-52 -129h-165l301 713c-37 18 -59 49 -59 87c0 61 56 107 143 107s143 -46 143 -107zM517 236l-130 318l-129 -318h259zM449 800c0 30 -25 53 -62 53s-62 -23 -62 -53c0 -28 25 -51 62 -51s62 23 62 51z" />
    <glyph glyph-name="Ccedilla" unicode="&#xc7;" horiz-adv-x="829" 
d="M317 -201v71c31 -15 62 -23 94 -23c31 0 51 12 51 35c0 22 -19 34 -63 34h-29v75c-212 20 -327 154 -327 360c0 224 155 361 377 361c272 0 366 -134 366 -257c0 -11 -1 -21 -2 -31l-157 -22c3 16 3 26 3 38c0 103 -91 152 -199 152c-130 0 -224 -80 -224 -241
c0 -180 109 -244 229 -244c100 0 197 53 197 154c0 15 -1 27 -4 42l154 -17c2 -11 3 -21 3 -33c0 -125 -90 -255 -330 -264v-37c63 -5 104 -35 104 -82c0 -56 -48 -94 -132 -94c-41 0 -77 7 -111 23z" />
    <glyph glyph-name="Eacute" unicode="&#xc9;" horiz-adv-x="706" 
d="M662 0h-591v700h591v-121h-432v-165h374v-115h-374v-179h432v-120zM555 909l-153 -160h-123l109 160h167z" />
    <glyph glyph-name="Ntilde" unicode="&#xd1;" horiz-adv-x="838" 
d="M766 0h-165l-377 479v-479h-153v700h167l375 -479v479h153v-700zM563 892l57 -7c4 -18 6 -36 6 -51c0 -70 -47 -100 -95 -100c-78 0 -154 82 -214 82c-27 0 -42 -16 -42 -45c0 -8 2 -16 4 -25l-56 7c-4 18 -6 37 -6 51c0 70 47 100 95 100c78 0 153 -82 213 -82
c27 0 42 16 42 45c0 8 -1 16 -4 25z" />
    <glyph glyph-name="Odieresis" unicode="&#xd6;" horiz-adv-x="883" 
d="M442 -12c-246 0 -399 133 -399 362s153 362 399 362c245 0 398 -133 398 -362s-153 -362 -398 -362zM442 101c137 0 234 79 234 249s-97 249 -234 249c-138 0 -235 -79 -235 -249s97 -249 235 -249zM388 760h-148v129h148v-129zM642 760h-148v129h148v-129z" />
    <glyph glyph-name="Udieresis" unicode="&#xdc;" horiz-adv-x="807" 
d="M404 -12c-214 0 -338 96 -338 279v433h158v-429c0 -113 71 -164 180 -164s179 51 179 164v429h158v-433c0 -183 -123 -279 -337 -279zM350 760h-148v129h148v-129zM604 760h-148v129h148v-129z" />
    <glyph glyph-name="agrave" unicode="&#xe0;" horiz-adv-x="626" 
d="M201 -11c-85 0 -163 43 -163 137c0 120 120 131 227 146c66 9 126 18 126 76c0 47 -31 81 -92 81c-50 0 -94 -26 -94 -86c0 -7 1 -16 3 -23l-136 -7c-2 10 -3 21 -3 32c0 114 100 177 237 177c129 0 233 -55 233 -198v-184c0 -34 19 -51 44 -51c15 0 31 5 46 14l-1 -92
c-35 -16 -71 -21 -105 -21c-66 0 -108 43 -115 105c-44 -81 -134 -106 -207 -106zM387 183v63c-23 -22 -58 -29 -89 -34c-51 -8 -104 -15 -104 -67c0 -41 33 -61 74 -61c52 0 119 30 119 99zM266 564l-152 160h166l109 -160h-123z" />
    <glyph glyph-name="acircumflex" unicode="&#xe2;" horiz-adv-x="626" 
d="M201 -11c-85 0 -163 43 -163 137c0 120 120 131 227 146c66 9 126 18 126 76c0 47 -31 81 -92 81c-50 0 -94 -26 -94 -86c0 -7 1 -16 3 -23l-136 -7c-2 10 -3 21 -3 32c0 114 100 177 237 177c129 0 233 -55 233 -198v-184c0 -34 19 -51 44 -51c15 0 31 5 46 14l-1 -92
c-35 -16 -71 -21 -105 -21c-66 0 -108 43 -115 105c-44 -81 -134 -106 -207 -106zM387 183v63c-23 -22 -58 -29 -89 -34c-51 -8 -104 -15 -104 -67c0 -41 33 -61 74 -61c52 0 119 30 119 99zM511 568h-130l-78 96l-78 -96h-130l136 162h144z" />
    <glyph glyph-name="adieresis" unicode="&#xe4;" horiz-adv-x="626" 
d="M201 -11c-85 0 -163 43 -163 137c0 120 120 131 227 146c66 9 126 18 126 76c0 47 -31 81 -92 81c-50 0 -94 -26 -94 -86c0 -7 1 -16 3 -23l-136 -7c-2 10 -3 21 -3 32c0 114 100 177 237 177c129 0 233 -55 233 -198v-184c0 -34 19 -51 44 -51c15 0 31 5 46 14l-1 -92
c-35 -16 -71 -21 -105 -21c-66 0 -108 43 -115 105c-44 -81 -134 -106 -207 -106zM387 183v63c-23 -22 -58 -29 -89 -34c-51 -8 -104 -15 -104 -67c0 -41 33 -61 74 -61c52 0 119 30 119 99zM246 583h-148v129h148v-129zM500 583h-148v129h148v-129z" />
    <glyph glyph-name="atilde" unicode="&#xe3;" horiz-adv-x="626" 
d="M201 -11c-85 0 -163 43 -163 137c0 120 120 131 227 146c66 9 126 18 126 76c0 47 -31 81 -92 81c-50 0 -94 -26 -94 -86c0 -7 1 -16 3 -23l-136 -7c-2 10 -3 21 -3 32c0 114 100 177 237 177c129 0 233 -55 233 -198v-184c0 -34 19 -51 44 -51c15 0 31 5 46 14l-1 -92
c-35 -16 -71 -21 -105 -21c-66 0 -108 43 -115 105c-44 -81 -134 -106 -207 -106zM387 183v63c-23 -22 -58 -29 -89 -34c-51 -8 -104 -15 -104 -67c0 -41 33 -61 74 -61c52 0 119 30 119 99zM450 714l57 -7c4 -18 6 -36 6 -51c0 -70 -47 -100 -95 -100
c-78 0 -154 82 -214 82c-27 0 -42 -16 -42 -45c0 -8 2 -16 4 -25l-56 7c-4 18 -6 37 -6 51c0 70 47 100 95 100c78 0 153 -82 213 -82c27 0 42 16 42 45c0 8 -1 16 -4 25z" />
    <glyph glyph-name="aring" unicode="&#xe5;" horiz-adv-x="626" 
d="M201 -11c-85 0 -163 43 -163 137c0 120 120 131 227 146c66 9 126 18 126 76c0 47 -31 81 -92 81c-50 0 -94 -26 -94 -86c0 -7 1 -16 3 -23l-136 -7c-2 10 -3 21 -3 32c0 114 100 177 237 177c129 0 233 -55 233 -198v-184c0 -34 19 -51 44 -51c15 0 31 5 46 14l-1 -92
c-35 -16 -71 -21 -105 -21c-66 0 -108 43 -115 105c-44 -81 -134 -106 -207 -106zM387 183v63c-23 -22 -58 -29 -89 -34c-51 -8 -104 -15 -104 -67c0 -41 33 -61 74 -61c52 0 119 30 119 99zM448 668c0 -59 -56 -106 -143 -106s-143 47 -143 106c0 61 56 107 143 107
s143 -46 143 -107zM367 668c0 30 -25 53 -62 53s-62 -23 -62 -53c0 -28 25 -52 62 -52s62 24 62 52z" />
    <glyph glyph-name="ccedilla" unicode="&#xe7;" horiz-adv-x="617" 
d="M217 -201v71c31 -15 62 -23 94 -23c31 0 51 12 51 35c0 22 -19 34 -63 34h-29v76c-143 19 -227 112 -227 265c0 168 109 265 277 265c151 0 254 -65 254 -169c0 -16 -4 -36 -10 -52l-120 -6c1 7 2 16 2 25c0 76 -59 100 -120 100c-78 0 -127 -55 -127 -162
c0 -106 51 -169 133 -169c49 0 116 28 116 97c0 9 -1 18 -2 24l124 -13c2 -12 3 -24 3 -35c0 -111 -104 -165 -217 -173v-37c63 -5 104 -35 104 -82c0 -56 -48 -94 -132 -94c-41 0 -77 7 -111 23z" />
    <glyph glyph-name="eacute" unicode="&#xe9;" horiz-adv-x="628" 
d="M322 -12c-174 0 -279 94 -279 267c0 163 103 267 277 267c145 0 268 -58 268 -228c0 -17 -2 -35 -4 -54h-387c-1 -97 49 -152 136 -152c61 0 120 21 120 86c0 6 -1 14 -3 21l128 -13c1 -5 2 -14 2 -22c0 -124 -127 -172 -258 -172zM198 300h240c1 6 1 12 1 20
c0 74 -50 105 -117 105c-72 0 -121 -47 -124 -125zM510 724l-153 -160h-123l109 160h167z" />
    <glyph glyph-name="egrave" unicode="&#xe8;" horiz-adv-x="628" 
d="M322 -12c-174 0 -279 94 -279 267c0 163 103 267 277 267c145 0 268 -58 268 -228c0 -17 -2 -35 -4 -54h-387c-1 -97 49 -152 136 -152c61 0 120 21 120 86c0 6 -1 14 -3 21l128 -13c1 -5 2 -14 2 -22c0 -124 -127 -172 -258 -172zM198 300h240c1 6 1 12 1 20
c0 74 -50 105 -117 105c-72 0 -121 -47 -124 -125zM289 564l-152 160h166l109 -160h-123z" />
    <glyph glyph-name="ecircumflex" unicode="&#xea;" horiz-adv-x="628" 
d="M322 -12c-174 0 -279 94 -279 267c0 163 103 267 277 267c145 0 268 -58 268 -228c0 -17 -2 -35 -4 -54h-387c-1 -97 49 -152 136 -152c61 0 120 21 120 86c0 6 -1 14 -3 21l128 -13c1 -5 2 -14 2 -22c0 -124 -127 -172 -258 -172zM198 300h240c1 6 1 12 1 20
c0 74 -50 105 -117 105c-72 0 -121 -47 -124 -125zM527 568h-130l-78 96l-78 -96h-130l136 162h144z" />
    <glyph glyph-name="edieresis" unicode="&#xeb;" horiz-adv-x="628" 
d="M322 -12c-174 0 -279 94 -279 267c0 163 103 267 277 267c145 0 268 -58 268 -228c0 -17 -2 -35 -4 -54h-387c-1 -97 49 -152 136 -152c61 0 120 21 120 86c0 6 -1 14 -3 21l128 -13c1 -5 2 -14 2 -22c0 -124 -127 -172 -258 -172zM198 300h240c1 6 1 12 1 20
c0 74 -50 105 -117 105c-72 0 -121 -47 -124 -125zM262 576h-148v129h148v-129zM516 576h-148v129h148v-129z" />
    <glyph glyph-name="iacute" unicode="&#xed;" horiz-adv-x="288" 
d="M345 724l-153 -160h-123l109 160h167zM220 0h-152v510h152v-510z" />
    <glyph glyph-name="igrave" unicode="&#xec;" horiz-adv-x="288" 
d="M98 564l-152 160h166l109 -160h-123zM220 0h-152v510h152v-510z" />
    <glyph glyph-name="icircumflex" unicode="&#xee;" horiz-adv-x="288" 
d="M220 0h-152v510h152v-510zM353 568h-130l-78 96l-78 -96h-130l136 162h144z" />
    <glyph glyph-name="idieresis" unicode="&#xef;" horiz-adv-x="288" 
d="M103 582h-134v123h134v-123zM321 582h-135v123h135v-123zM220 0h-152v510h152v-510z" />
    <glyph glyph-name="ntilde" unicode="&#xf1;" horiz-adv-x="651" 
d="M589 0h-152v315c0 60 -35 94 -95 94c-58 0 -122 -46 -122 -131v-278h-152v510h113l22 -118c43 98 127 130 197 130c115 0 189 -66 189 -184v-338zM463 728l57 -7c4 -18 6 -36 6 -51c0 -70 -47 -100 -95 -100c-78 0 -154 82 -214 82c-27 0 -42 -16 -42 -45
c0 -8 2 -16 4 -25l-56 7c-4 18 -6 37 -6 51c0 70 47 100 95 100c78 0 153 -82 213 -82c27 0 42 16 42 45c0 8 -1 16 -4 25z" />
    <glyph glyph-name="oacute" unicode="&#xf3;" horiz-adv-x="671" 
d="M336 -12c-182 0 -293 104 -293 267c0 162 111 267 293 267c181 0 292 -105 292 -267c0 -163 -111 -267 -292 -267zM336 85c85 0 138 57 138 170c0 112 -53 169 -138 169c-86 0 -138 -57 -138 -169c0 -113 52 -170 138 -170zM527 724l-153 -160h-123l109 160h167z" />
    <glyph glyph-name="ograve" unicode="&#xf2;" horiz-adv-x="671" 
d="M336 -12c-182 0 -293 104 -293 267c0 162 111 267 293 267c181 0 292 -105 292 -267c0 -163 -111 -267 -292 -267zM336 85c85 0 138 57 138 170c0 112 -53 169 -138 169c-86 0 -138 -57 -138 -169c0 -113 52 -170 138 -170zM304 564l-152 160h166l109 -160h-123z" />
    <glyph glyph-name="ocircumflex" unicode="&#xf4;" horiz-adv-x="671" 
d="M336 -12c-182 0 -293 104 -293 267c0 162 111 267 293 267c181 0 292 -105 292 -267c0 -163 -111 -267 -292 -267zM336 85c85 0 138 57 138 170c0 112 -53 169 -138 169c-86 0 -138 -57 -138 -169c0 -113 52 -170 138 -170zM543 566h-130l-78 96l-78 -96h-130l136 162
h144z" />
    <glyph glyph-name="odieresis" unicode="&#xf6;" horiz-adv-x="671" 
d="M336 -12c-182 0 -293 104 -293 267c0 162 111 267 293 267c181 0 292 -105 292 -267c0 -163 -111 -267 -292 -267zM336 85c85 0 138 57 138 170c0 112 -53 169 -138 169c-86 0 -138 -57 -138 -169c0 -113 52 -170 138 -170zM283 580h-148v129h148v-129zM537 580h-148v129
h148v-129z" />
    <glyph glyph-name="otilde" unicode="&#xf5;" horiz-adv-x="671" 
d="M336 -12c-182 0 -293 104 -293 267c0 162 111 267 293 267c181 0 292 -105 292 -267c0 -163 -111 -267 -292 -267zM336 85c85 0 138 57 138 170c0 112 -53 169 -138 169c-86 0 -138 -57 -138 -169c0 -113 52 -170 138 -170zM480 726l57 -7c4 -18 6 -36 6 -51
c0 -70 -47 -100 -95 -100c-78 0 -154 82 -214 82c-27 0 -42 -16 -42 -45c0 -8 2 -16 4 -25l-56 7c-4 18 -6 37 -6 51c0 70 47 100 95 100c78 0 153 -82 213 -82c27 0 42 16 42 45c0 8 -1 16 -4 25z" />
    <glyph glyph-name="uacute" unicode="&#xfa;" horiz-adv-x="644" 
d="M592 0h-124l-26 117c-43 -95 -126 -129 -194 -129c-112 0 -186 65 -186 188v334h152v-316c0 -59 32 -93 91 -93c56 0 120 45 120 134v275h152v-378zM515 724l-153 -160h-123l109 160h167z" />
    <glyph glyph-name="ugrave" unicode="&#xf9;" horiz-adv-x="644" 
d="M592 0h-124l-26 117c-43 -95 -126 -129 -194 -129c-112 0 -186 65 -186 188v334h152v-316c0 -59 32 -93 91 -93c56 0 120 45 120 134v275h152v-378zM282 564l-152 160h166l109 -160h-123z" />
    <glyph glyph-name="ucircumflex" unicode="&#xfb;" horiz-adv-x="644" 
d="M592 0h-124l-26 117c-43 -95 -126 -129 -194 -129c-112 0 -186 65 -186 188v334h152v-316c0 -59 32 -93 91 -93c56 0 120 45 120 134v275h152v-378zM528 568h-130l-78 96l-78 -96h-130l136 162h144z" />
    <glyph glyph-name="udieresis" unicode="&#xfc;" horiz-adv-x="644" 
d="M592 0h-124l-26 117c-43 -95 -126 -129 -194 -129c-112 0 -186 65 -186 188v334h152v-316c0 -59 32 -93 91 -93c56 0 120 45 120 134v275h152v-378zM268 582h-148v129h148v-129zM522 582h-148v129h148v-129z" />
    <glyph glyph-name="Agrave" unicode="&#xc0;" horiz-adv-x="776" 
d="M774 0h-165l-52 129h-338l-52 -129h-165l296 700h181zM517 236l-130 318l-129 -318h259zM345 749l-152 160h166l109 -160h-123z" />
    <glyph glyph-name="Atilde" unicode="&#xc3;" horiz-adv-x="776" 
d="M774 0h-165l-52 129h-338l-52 -129h-165l296 700h181zM517 236l-130 318l-129 -318h259zM538 899l57 -7c4 -18 6 -36 6 -51c0 -70 -47 -100 -95 -100c-78 0 -154 82 -214 82c-27 0 -42 -16 -42 -45c0 -8 2 -16 4 -25l-56 7c-4 18 -6 37 -6 51c0 70 47 100 95 100
c78 0 153 -82 213 -82c27 0 42 16 42 45c0 8 -1 16 -4 25z" />
    <glyph glyph-name="Otilde" unicode="&#xd5;" horiz-adv-x="883" 
d="M442 -12c-246 0 -399 133 -399 362s153 362 399 362c245 0 398 -133 398 -362s-153 -362 -398 -362zM442 101c137 0 234 79 234 249s-97 249 -234 249c-138 0 -235 -79 -235 -249s97 -249 235 -249zM580 906l57 -7c4 -18 6 -36 6 -51c0 -70 -47 -100 -95 -100
c-78 0 -154 82 -214 82c-27 0 -42 -16 -42 -45c0 -8 2 -16 4 -25l-56 7c-4 18 -6 37 -6 51c0 70 47 100 95 100c78 0 153 -82 213 -82c27 0 42 16 42 45c0 8 -1 16 -4 25z" />
    <glyph glyph-name="OE" unicode="&#x152;" horiz-adv-x="1220" 
d="M1178 0h-558c-47 -6 -111 -12 -169 -12c-255 0 -408 133 -408 362s153 362 408 362c58 0 120 -6 167 -12h560v-121h-432v-165h374v-115h-374v-179h432v-120zM588 117v465c-45 11 -90 15 -133 15c-149 0 -247 -77 -247 -247s98 -247 247 -247c43 0 88 5 133 14z" />
    <glyph glyph-name="oe" unicode="&#x153;" horiz-adv-x="1058" 
d="M43 255c0 162 111 267 280 267c104 0 183 -41 225 -109c40 68 113 109 214 109c133 0 256 -58 256 -228c0 -17 -2 -33 -4 -52h-387c-1 -97 49 -154 136 -154c61 0 120 21 120 86c0 6 -1 14 -3 21l128 -13c1 -5 2 -14 2 -22c0 -124 -121 -172 -246 -172
c-102 0 -176 39 -217 106c-42 -66 -121 -106 -224 -106c-169 0 -280 104 -280 267zM197 255c0 -113 52 -170 138 -170c84 0 138 56 138 168c0 114 -52 171 -138 171s-138 -57 -138 -169zM628 298h240c1 6 1 14 1 22c0 74 -50 105 -117 105c-72 0 -121 -49 -124 -127z" />
    <glyph glyph-name="ydieresis" unicode="&#xff;" horiz-adv-x="616" 
d="M251 -53l10 28l-237 535h166l139 -375l130 375h150l-213 -533c-50 -124 -101 -184 -230 -184c-98 0 -171 35 -171 139c0 6 0 16 1 24l137 19c-2 -9 -3 -18 -3 -29c0 -40 18 -62 50 -62c35 0 57 23 71 63zM275 582h-148v129h148v-129zM529 582h-148v129h148v-129z" />
    <glyph glyph-name="Ydieresis" unicode="&#x178;" horiz-adv-x="726" 
d="M442 0h-158v258l-281 442h177l183 -312l183 312h177l-281 -442v-258zM309 752h-148v129h148v-129zM563 752h-148v129h148v-129z" />
    <glyph glyph-name="fraction" unicode="&#x2044;" horiz-adv-x="342" 
d="M33 -12h-115l389 712h115z" />
    <glyph glyph-name="Acircumflex" unicode="&#xc2;" horiz-adv-x="776" 
d="M774 0h-165l-52 129h-338l-52 -129h-165l296 700h181zM517 236l-130 318l-129 -318h259zM595 753h-130l-78 96l-78 -96h-130l136 162h144z" />
    <glyph glyph-name="Ecircumflex" unicode="&#xca;" horiz-adv-x="706" 
d="M662 0h-591v700h591v-121h-432v-165h374v-115h-374v-179h432v-120zM573 753h-130l-78 96l-78 -96h-130l136 162h144z" />
    <glyph glyph-name="Aacute" unicode="&#xc1;" horiz-adv-x="776" 
d="M774 0h-165l-52 129h-338l-52 -129h-165l296 700h181zM517 236l-130 318l-129 -318h259zM591 909l-153 -160h-123l109 160h167z" />
    <glyph glyph-name="Edieresis" unicode="&#xcb;" horiz-adv-x="706" 
d="M662 0h-591v700h591v-121h-432v-165h374v-115h-374v-179h432v-120zM311 760h-148v129h148v-129zM565 760h-148v129h148v-129z" />
    <glyph glyph-name="Egrave" unicode="&#xc8;" horiz-adv-x="706" 
d="M662 0h-591v700h591v-121h-432v-165h374v-115h-374v-179h432v-120zM346 749l-152 160h166l109 -160h-123z" />
    <glyph glyph-name="Iacute" unicode="&#xcd;" horiz-adv-x="613" 
d="M579 0h-545v120h193v460h-193v120h545v-120h-193v-460h193v-120zM506 910l-153 -160h-123l109 160h167z" />
    <glyph glyph-name="Icircumflex" unicode="&#xce;" horiz-adv-x="613" 
d="M579 0h-545v120h193v460h-193v120h545v-120h-193v-460h193v-120zM515 753h-130l-78 96l-78 -96h-130l136 162h144z" />
    <glyph glyph-name="Idieresis" unicode="&#xcf;" horiz-adv-x="613" 
d="M579 0h-545v120h193v460h-193v120h545v-120h-193v-460h193v-120zM254 752h-148v129h148v-129zM508 752h-148v129h148v-129z" />
    <glyph glyph-name="Igrave" unicode="&#xcc;" horiz-adv-x="613" 
d="M579 0h-545v120h193v460h-193v120h545v-120h-193v-460h193v-120zM262 749l-152 160h166l109 -160h-123z" />
    <glyph glyph-name="Oacute" unicode="&#xd3;" horiz-adv-x="883" 
d="M442 -12c-246 0 -399 133 -399 362s153 362 399 362c245 0 398 -133 398 -362s-153 -362 -398 -362zM442 101c137 0 234 79 234 249s-97 249 -234 249c-138 0 -235 -79 -235 -249s97 -249 235 -249zM630 909l-153 -160h-123l109 160h167z" />
    <glyph glyph-name="Ocircumflex" unicode="&#xd4;" horiz-adv-x="883" 
d="M442 -12c-246 0 -399 133 -399 362s153 362 399 362c245 0 398 -133 398 -362s-153 -362 -398 -362zM442 101c137 0 234 79 234 249s-97 249 -234 249c-138 0 -235 -79 -235 -249s97 -249 235 -249zM649 753h-130l-78 96l-78 -96h-130l136 162h144z" />
    <glyph glyph-name="Uacute" unicode="&#xda;" horiz-adv-x="807" 
d="M404 -12c-214 0 -338 96 -338 279v433h158v-429c0 -113 71 -164 180 -164s179 51 179 164v429h158v-433c0 -183 -123 -279 -337 -279zM599 909l-153 -160h-123l109 160h167z" />
    <glyph glyph-name="Ucircumflex" unicode="&#xdb;" horiz-adv-x="807" 
d="M404 -12c-214 0 -338 96 -338 279v433h158v-429c0 -113 71 -164 180 -164s179 51 179 164v429h158v-433c0 -183 -123 -279 -337 -279zM611 753h-130l-78 96l-78 -96h-130l136 162h144z" />
    <glyph glyph-name="Ugrave" unicode="&#xd9;" horiz-adv-x="807" 
d="M404 -12c-214 0 -338 96 -338 279v433h158v-429c0 -113 71 -164 180 -164s179 51 179 164v429h158v-433c0 -183 -123 -279 -337 -279zM366 749l-152 160h166l109 -160h-123z" />
    <glyph glyph-name="Ograve" unicode="&#xd2;" horiz-adv-x="883" 
d="M442 -12c-246 0 -399 133 -399 362s153 362 399 362c245 0 398 -133 398 -362s-153 -362 -398 -362zM442 101c137 0 234 79 234 249s-97 249 -234 249c-138 0 -235 -79 -235 -249s97 -249 235 -249zM409 749l-152 160h166l109 -160h-123z" />
    <glyph glyph-name="oslash" unicode="&#xf8;" horiz-adv-x="673" 
d="M336 -12c-39 0 -74 5 -106 14l-47 -77h-77l62 102c-80 44 -125 124 -125 228c0 162 111 267 293 267c44 0 85 -7 120 -19l43 70h77l-60 -98c72 -46 112 -123 112 -220c0 -163 -111 -267 -292 -267zM198 255c0 -57 13 -100 37 -128l168 281c-19 10 -42 16 -67 16
c-86 0 -138 -57 -138 -169zM336 85c85 0 138 57 138 170c0 49 -10 87 -29 115l-164 -276c16 -6 34 -9 55 -9z" />
    <glyph glyph-name="ae" unicode="&#xe6;" horiz-adv-x="968" 
d="M38 126c0 138 179 163 353 167v51c0 50 -32 85 -93 85c-49 0 -93 -26 -93 -86c0 -7 1 -16 3 -23l-136 -7c-2 10 -3 21 -3 32c-1 114 87 177 213 177c91 0 158 -35 194 -95c42 62 109 95 202 95c134 0 250 -58 250 -228c0 -17 -1 -33 -3 -52h-387c-1 -97 48 -154 135 -154
c62 0 120 21 120 86c0 8 -1 15 -2 21l126 -13c1 -4 3 -13 3 -25c0 -121 -121 -169 -250 -169c-110 0 -185 44 -223 121c-48 -80 -122 -120 -230 -120c-101 0 -179 43 -179 137zM392 237c-93 -3 -199 -15 -199 -90c0 -41 37 -63 80 -63c66 0 119 60 119 128v25zM539 298h239
c1 6 2 14 2 22c0 74 -51 105 -118 105c-72 0 -120 -49 -123 -127z" />
    <glyph glyph-name="AE" unicode="&#xc6;" horiz-adv-x="1205" 
d="M1163 0h-572v155h-345l-85 -155h-166l398 700h770v-121h-414v-165h356v-115h-356v-179h414v-120zM591 262v317h-112l-180 -317h292z" />
    <glyph glyph-name="aacute" unicode="&#xe1;" horiz-adv-x="626" 
d="M201 -11c-85 0 -163 43 -163 137c0 120 120 131 227 146c66 9 126 18 126 76c0 47 -31 81 -92 81c-50 0 -94 -26 -94 -86c0 -7 1 -16 3 -23l-136 -7c-2 10 -3 21 -3 32c0 114 100 177 237 177c129 0 233 -55 233 -198v-184c0 -34 19 -51 44 -51c15 0 31 5 46 14l-1 -92
c-35 -16 -71 -21 -105 -21c-66 0 -108 43 -115 105c-44 -81 -134 -106 -207 -106zM387 183v63c-23 -22 -58 -29 -89 -34c-51 -8 -104 -15 -104 -67c0 -41 33 -61 74 -61c52 0 119 30 119 99zM493 724l-153 -160h-123l109 160h167z" />
    <glyph glyph-name="onehalf" unicode="&#xbd;" horiz-adv-x="1066" 
d="M297 253h-107v321c-46 -29 -100 -41 -152 -41v74c89 3 164 35 205 97h54v-451zM354 -12h-115l389 712h115zM1011 0h-358v34c0 95 65 133 137 166c65 29 113 56 113 114c0 45 -28 69 -78 69c-48 0 -80 -29 -80 -79c0 -9 1 -23 4 -31l-99 12c-2 10 -3 22 -3 31
c0 83 73 137 183 137c120 0 181 -62 181 -137c0 -103 -87 -139 -154 -171c-38 -18 -72 -35 -77 -68h231v-77z" />
    <glyph glyph-name="onequarter" unicode="&#xbc;" horiz-adv-x="1022" 
d="M912 0h-104v95h-258v54l245 302h117v-282h67v-74h-67v-95zM808 169v193l-158 -193h158zM297 253h-107v321c-46 -29 -100 -41 -152 -41v74c89 3 164 35 205 97h54v-451zM354 -12h-115l390 712h114z" />
    <glyph glyph-name="onesuperior" unicode="&#xb9;" horiz-adv-x="374" 
d="M287 253h-108v321c-45 -29 -99 -41 -151 -41v74c89 3 164 35 204 97h55v-451z" />
    <glyph glyph-name="threequarters" unicode="&#xbe;" horiz-adv-x="1124" 
d="M1014 0h-104v95h-258v54l245 302h117v-282h67v-74h-67v-95zM910 169v193l-157 -193h157zM457 -12h-114l389 712h115zM198 464v47s12 -1 18 -1c62 0 113 22 113 79c0 30 -25 56 -77 56c-46 0 -78 -22 -78 -60c0 -7 1 -13 4 -22l-94 8c-2 8 -3 17 -3 25
c0 73 79 116 179 116c124 0 182 -53 182 -117c0 -49 -36 -89 -96 -103c70 -12 107 -55 107 -111c0 -68 -66 -134 -199 -134c-109 0 -186 35 -186 121c0 10 2 24 5 37l99 7c-4 -11 -7 -21 -7 -31c0 -39 33 -64 84 -64c49 0 90 24 90 73c0 57 -51 74 -120 74h-21z" />
    <glyph glyph-name="threesuperior" unicode="&#xb3;" horiz-adv-x="504" 
d="M189 464v47s12 -1 18 -1c62 0 113 22 113 79c0 30 -25 56 -77 56c-46 0 -78 -22 -78 -60c0 -7 1 -13 4 -22l-94 8c-2 8 -3 17 -3 25c0 73 79 116 179 116c124 0 182 -53 182 -117c0 -49 -36 -89 -96 -103c70 -12 107 -55 107 -111c0 -68 -66 -134 -199 -134
c-109 0 -186 35 -186 121c0 10 2 24 5 37l99 7c-4 -11 -7 -21 -7 -31c0 -39 33 -64 84 -64c49 0 90 24 90 73c0 57 -51 74 -120 74h-21z" />
    <glyph glyph-name="twosuperior" unicode="&#xb2;" horiz-adv-x="489" 
d="M428 259h-358v34c0 95 65 133 137 166c65 29 113 56 113 114c0 45 -28 69 -78 69c-48 0 -80 -29 -80 -79c0 -9 1 -23 4 -31l-99 12c-2 10 -3 22 -3 31c0 83 73 137 183 137c120 0 181 -62 181 -137c0 -103 -87 -139 -154 -171c-38 -18 -72 -35 -77 -68h231v-77z" />
    <glyph glyph-name="Eth" unicode="&#xd0;" horiz-adv-x="852" 
d="M409 0h-308v295h-100v110h100v295h303c271 0 405 -122 405 -350c0 -223 -133 -350 -400 -350zM447 295h-188v-184h153c158 0 237 88 237 239c0 159 -90 239 -237 239h-153v-184h188v-110z" />
    <glyph glyph-name="thorn" unicode="&#xfe;" horiz-adv-x="655" 
d="M220 -198h-152v905h152v-261c41 53 102 68 155 68c129 0 236 -75 236 -258c0 -191 -121 -269 -245 -269c-51 0 -109 18 -146 61v-246zM219 325v-149c8 -58 64 -92 115 -92c63 0 122 58 122 166c0 122 -57 170 -117 170c-52 0 -109 -33 -120 -95z" />
    <glyph glyph-name="Oslash" unicode="&#xd8;" horiz-adv-x="883" 
d="M442 -12c-59 0 -112 8 -159 22l-64 -90h-131l96 136c-90 61 -141 162 -141 294c0 229 153 362 399 362c67 0 127 -11 179 -30l57 80h132l-93 -132c79 -62 123 -157 123 -280c0 -229 -153 -362 -398 -362zM207 350c0 -80 21 -139 58 -180l286 408c-32 14 -69 21 -109 21
c-138 0 -235 -79 -235 -249zM442 101c137 0 234 79 234 249c0 68 -16 122 -44 162l-280 -398c27 -9 57 -13 90 -13z" />
    <glyph glyph-name="questiondown" unicode="&#xbf;" horiz-adv-x="589" 
d="M426 37l127 -14c2 -14 4 -29 4 -43c0 -130 -119 -182 -258 -182c-181 0 -263 97 -263 204c0 134 95 209 241 212h15l7 95h95l20 -169c-98 6 -233 -12 -233 -130c0 -61 45 -100 124 -100c68 0 124 31 124 99c0 9 -1 18 -3 28zM429 381h-169v129h169v-129z" />
    <glyph glyph-name="exclamdown" unicode="&#xa1;" horiz-adv-x="307" 
d="M238 379h-169v131h169v-131zM234 -190h-161v274l22 215h117l22 -215v-274z" />
    <glyph glyph-name="ordfeminine" unicode="&#xaa;" horiz-adv-x="413" 
d="M393 473v-55c-21 -10 -42 -13 -63 -13c-30 0 -66 16 -69 56c-26 -44 -76 -58 -119 -58c-52 0 -97 26 -97 81c0 70 73 77 135 86c37 5 72 11 72 44c0 26 -18 45 -53 45c-28 0 -53 -14 -53 -48c0 -3 1 -11 2 -16l-83 -3c-1 5 -2 13 -2 20c0 66 59 103 140 103
c77 0 138 -34 138 -116v-107c0 -19 10 -29 24 -29c9 0 19 4 28 10zM250 516v35c-15 -12 -32 -15 -52 -18c-29 -5 -58 -10 -58 -39c0 -23 18 -34 41 -34c29 0 69 17 69 56z" />
    <glyph glyph-name="ordmasculine" unicode="&#xba;" horiz-adv-x="427" 
d="M290 559c0 64 -29 98 -77 98c-47 0 -76 -34 -76 -98s29 -98 76 -98c48 0 77 34 77 98zM384 559c0 -94 -65 -156 -171 -156c-105 0 -170 62 -170 156s65 156 170 156c106 0 171 -62 171 -156z" />
    <glyph glyph-name="registered" unicode="&#xae;" horiz-adv-x="822" 
d="M411 -26c-207 0 -361 160 -361 369s154 369 361 369s361 -160 361 -369s-154 -369 -361 -369zM410 3c189 0 331 148 331 340c0 191 -142 339 -331 339c-188 0 -330 -148 -330 -339c0 -192 142 -340 330 -340zM597 155h-93l-21 85c-13 49 -34 65 -80 65h-43v-150h-93v381
h178c77 0 132 -34 132 -103c0 -54 -35 -95 -96 -103v-2c53 -4 79 -30 92 -80zM359 361h57c51 0 67 26 67 54c0 29 -17 52 -67 52h-57v-106z" />
    <glyph glyph-name="Euro" unicode="&#x20ac;" horiz-adv-x="939" 
d="M31 234v61h130c-3 18 -4 37 -4 56s1 38 4 56h-130v62h142c44 153 178 243 359 243c272 0 363 -134 363 -254c0 -13 -1 -25 -2 -34c-6 -1 -152 -21 -158 -22c3 13 4 29 4 41c0 104 -100 151 -200 151c-94 0 -169 -44 -202 -125h259v-62h-274c-3 -17 -5 -34 -5 -56
s2 -40 4 -56h275v-61h-259c35 -94 121 -129 209 -129c97 0 197 51 197 152c0 15 -1 30 -5 46l155 -17c1 -11 2 -21 2 -33c0 -129 -95 -265 -356 -265c-201 0 -328 91 -368 246h-140z" />
    <glyph glyph-name="yen" unicode="&#xa5;" horiz-adv-x="756" 
d="M700 124h-246v-124h-152v124h-246v87h246v48l-31 47h-215v87h160l-195 307h174l183 -312l183 312h174l-195 -307h160v-87h-215l-31 -47v-48h246v-87z" />
    <glyph glyph-name="mu" unicode="&#xb5;" horiz-adv-x="651" 
d="M601 0h-126l-26 117c-43 -95 -120 -129 -188 -129c-28 0 -51 8 -68 31v-216h-125v707h152v-316c0 -59 32 -93 92 -93c56 0 120 45 120 134v275h151v-396z" />
    <glyph glyph-name="Thorn" unicode="&#xde;" horiz-adv-x="723" 
d="M406 114h-177v-114h-158v699h158v-110h177c173 0 280 -82 280 -236c0 -167 -123 -239 -280 -239zM229 225h163c102 0 133 49 133 128s-34 124 -133 124h-163v-252z" />
    <glyph glyph-name="trademark" unicode="&#x2122;" horiz-adv-x="833" 
d="M221 380h-84v254h-111v66h307v-66h-112v-254zM788 380h-82v227l-91 -227h-78l-88 228v-228h-80v320h121l89 -230l88 230h121v-320z" />
    <glyph glyph-name="ellipsis" unicode="&#x2026;" horiz-adv-x="851" 
d="M223 0h-166v147h166v-147zM509 0h-167v147h167v-147zM794 0h-167v147h167v-147z" />
    <glyph glyph-name="i" unicode="i" horiz-adv-x="292" 
d="M222 0h-152v510h152v-510zM225 583h-158v98h158v-98z" />
    <glyph glyph-name="multiply" unicode="&#xd7;" horiz-adv-x="611" 
d="M478 48l-173 173l-172 -173l-82 82l173 172l-174 174l82 82l173 -174l174 174l82 -82l-174 -174l173 -172z" />
    <glyph glyph-name="uni00A0" unicode="&#xa0;" horiz-adv-x="260" 
 />
    <glyph glyph-name="bracketleft" unicode="[" horiz-adv-x="421" 
d="M371 42v-109h-280v833h280v-109h-130v-615h130z" />
    </font>
</defs>
</svg>
