<svg width="205" height="33" viewBox="0 0 205 33" fill="none" xmlns="http://www.w3.org/2000/svg">
<path d="M67.3724 0.949566C46.6538 1.01942 25.8895 0.644347 5.26003 0.442789C2.49876 0.415811 0.241971 2.63611 0.219225 5.39741L0.0412892 26.999C0.0185434 29.7603 2.23866 32.0183 5.0001 32.026C23.1655 32.0769 41.3207 31.6398 59.4327 31.7888C105.112 32.1645 152.047 31.6972 197.773 32.0732C199.594 32.0882 206.507 33.0881 202.883 30.7175C199.998 28.8302 195.992 25.3285 193.894 22.6066C191.794 19.8821 187.9 16.3261 192.216 13.857C193.921 12.8812 195.527 10.9166 197.423 9.86193C199.782 8.55002 201.416 6.91805 202.945 4.70466C204.814 1.99751 204.942 0.683197 201.608 0.655776L191.336 0.571298C150.005 0.231394 108.723 0.810143 67.3724 0.949566Z" fill="#885CA1" fill-opacity="0.2"/>
</svg>
